#!OML:ASF F:\VICON\USERDATA\INSTALL\Justin_Nancy\Justin_Nancy.ASF
:FULLY-SPECIFIED
:DEGREES
114
root -10.5069 16.8482 26.9242 -5.93131 -50.0156 11.875
lowerback 11.2754 -1.3928 -5.06648
upperback 1.5009 -2.40033 1.94349
thorax -4.45449 -1.10348 5.26004
lowerneck -19.0855 -0.933318 -10.1259
upperneck 17.3246 0.775781 3.82613
head 8.49809 0.0848066 3.05227
rclavicle 3.37934e-015 2.38542e-014
rhumerus -59.8353 7.88822 -90.9963
rradius 103.431
rwrist -5.02971
rhand -19.0972 32.1944
rfingers 7.12502
rthumb 7.21135 2.3373
lclavicle 3.37934e-015 2.38542e-014
lhumerus -31.9214 -9.07545 98.9849
lradius 140.099
lwrist 51.898
lhand -13.042 8.79265
lfingers 7.12502
lthumb 13.0527 38.3642
rfemur -45.0679 -3.38217 15.7506
rtibia 61.1551
rfoot -8.3858 -9.49045
rtoes -13.5635
lfemur 0.300499 2.20639 -26.6787
ltibia 43.8282
lfoot 3.40407 -9.94509
ltoes -25.4978
115
root -10.8686 16.9148 27.3706 -5.34927 -50.5151 11.0486
lowerback 11.0379 -1.34308 -4.30938
upperback 1.57345 -2.23423 1.91061
thorax -4.29801 -1.0407 4.75898
lowerneck -19.6899 -0.925637 -9.50574
upperneck 17.8608 0.691339 3.74034
head 8.79454 0.066434 2.92616
rclavicle 5.1684e-014 -3.49861e-014
rhumerus -59.7203 7.28769 -90.9179
rradius 103.009
rwrist -4.54507
rhand -18.7092 32.445
rfingers 7.12502
rthumb 7.58586 2.60105
lclavicle 5.1684e-014 -3.49861e-014
lhumerus -32.0281 -10.4701 99.1797
lradius 140.872
lwrist 53.3086
lhand -12.9551 9.29365
lfingers 7.12502
lthumb 13.1365 38.8599
rfemur -44.2719 -2.30454 16.2065
rtibia 55.5475
rfoot -6.23052 -10.5083
rtoes -17.4228
lfemur 1.30356 0.54201 -26.7483
ltibia 43.4808
lfoot 9.32466 -10.7055
ltoes -21.4012
116
root -11.2261 16.9679 27.8163 -5.44774 -50.8247 10.9659
lowerback 11.0149 -1.05743 -3.82147
upperback 1.73207 -1.81504 1.50402
thorax -4.19484 -0.849107 3.99075
lowerneck -20.544 -1.07021 -8.40477
upperneck 18.3849 0.28634 3.56051
head 9.15497 -0.073098 2.64655
rclavicle -1.11319e-014 1.27222e-014
rhumerus -59.5515 6.01954 -90.9388
rradius 102.742
rwrist -4.01191
rhand -19.4927 32.4845
rfingers 7.12502
rthumb 6.82959 2.61468
lclavicle -1.11319e-014 1.27222e-014
lhumerus -32.222 -12.7349 99.2344
lradius 141.123
lwrist 53.7298
lhand -11.8941 9.62451
lfingers 7.12502
lthumb 14.159 39.122
rfemur -43.1419 -1.39738 15.9807
rtibia 50.0429
rfoot -3.938 -10.248
rtoes -18.247
lfemur 2.20005 -1.58606 -27.6183
ltibia 43.4141
lfoot 14.3162 -11.1998
ltoes -16.3413
117
root -11.584 17.0063 28.2609 -5.92346 -51.0061 11.338
lowerback 10.9461 -0.809134 -3.68388
upperback 1.8588 -1.48599 1.0837
thorax -4.07052 -0.695974 3.42119
lowerneck -20.8984 -1.25085 -7.41135
upperneck 18.4323 -0.178719 3.29671
head 9.26198 -0.246758 2.33158
rclavicle 4.07509e-014 1.59028e-015
rhumerus -59.3554 5.01295 -90.9467
rradius 102.48
rwrist -3.6188
rhand -20.4958 32.1708
rfingers 7.12502
rthumb 5.86113 2.27185
lclavicle 4.07509e-014 1.59028e-015
lhumerus -32.7383 -14.8283 99.2136
lradius 140.971
lwrist 53.0308
lhand -10.3703 9.49004
lfingers 7.12502
lthumb 15.6271 38.8788
rfemur -41.9301 -0.503556 15.4041
rtibia 44.8601
rfoot -1.4002 -9.33493
rtoes -20.5771
lfemur 2.76457 -3.60322 -28.8347
ltibia 43.8446
lfoot 18.8121 -12.4739
ltoes -11.9157
118
root -11.9438 17.0198 28.6963 -6.75058 -51.1978 12.0587
lowerback 10.9107 -1.35541 -4.55099
upperback 1.4596 -2.28672 1.63086
thorax -4.34318 -1.05983 4.60562
lowerneck -19.1616 -0.410295 -9.71335
upperneck 18.2987 1.27051 4.32368
head 8.7993 0.371695 3.23876
rclavicle 3.61788e-014 -2.54444e-014
rhumerus -60.2232 7.60814 -90.4607
rradius 102.341
rwrist -3.83824
rhand -20.9641 31.9167
rfingers 7.12502
rthumb 5.40898 2.00577
lclavicle 3.61788e-014 -2.54444e-014
lhumerus -34.4369 -13.3669 100.124
lradius 140.674
lwrist 51.3465
lhand -8.75065 9.46163
lfingers 7.12502
lthumb 17.1865 38.7216
rfemur -40.6719 0.491937 14.552
rtibia 40.2413
rfoot 0.337721 -7.63156
rtoes -25.665
lfemur 2.99947 -4.99824 -30.1386
ltibia 44.9063
lfoot 22.8881 -14.7685
ltoes -2.45856
119
root -12.2988 17.0257 29.1349 -7.09445 -50.8053 12.1526
lowerback 10.7904 -1.65862 -4.53374
upperback 1.44418 -2.6791 1.69759
thorax -4.24629 -1.2567 4.71373
lowerneck -17.9035 -0.915695 -9.43405
upperneck 16.7729 0.484653 3.78733
head 8.12521 -0.00315085 2.87278
rclavicle -6.08281e-014 -4.77083e-015
rhumerus -60.2496 8.16522 -90.1402
rradius 102.123
rwrist -3.76773
rhand -21.3954 31.9366
rfingers 7.12502
rthumb 4.99257 2.01543
lclavicle -6.08281e-014 -4.77083e-015
lhumerus -35.4893 -13.6299 100.608
lradius 139.801
lwrist 49.7062
lhand -8.36869 9.03458
lfingers 7.12502
lthumb 17.5541 38.2621
rfemur -39.2015 1.20965 13.8338
rtibia 36.3284
rfoot 0.662556 -6.0582
rtoes -27.7086
lfemur 2.82614 -6.53513 -30.9569
ltibia 46.7142
lfoot 25.8949 -16.4799
ltoes -0.0457596
120
root -12.6552 17.0161 29.5654 -7.33296 -50.7953 11.8057
lowerback 10.681 -1.46189 -4.0724
upperback 1.80137 -2.37108 1.45209
thorax -3.87562 -1.13186 4.13826
lowerneck -18.5693 -1.07003 -9.36304
upperneck 17.3581 0.194499 4.39796
head 8.45595 -0.0803521 3.04974
rclavicle -3.10104e-014 -2.22639e-014
rhumerus -59.6246 7.1791 -90.036
rradius 101.812
rwrist -3.26547
rhand -21.9435 31.8914
rfingers 7.12502
rthumb 4.46329 1.95844
lclavicle -3.10104e-014 -2.22639e-014
lhumerus -36.172 -15.2236 100.676
lradius 138.419
lwrist 47.7687
lhand -9.14639 8.27665
lfingers 7.12502
lthumb 16.8055 37.5694
rfemur -37.5009 2.55042 13.4926
rtibia 33.2181
rfoot 0.832428 -5.74459
rtoes -23.3076
lfemur 2.52496 -7.24472 -31.2619
ltibia 49.217
lfoot 26.2444 -17.0883
ltoes 5.04128
121
root -13.0126 16.989 29.9888 -7.62785 -50.6543 11.5369
lowerback 10.7131 -1.10531 -3.63886
upperback 2.25401 -1.86553 1.11201
thorax -3.49673 -0.907408 3.46129
lowerneck -19.5717 -1.67949 -8.88242
upperneck 17.6757 -0.757082 4.74986
head 8.80978 -0.453215 2.98341
rclavicle 3.598e-014 3.18055e-015
rhumerus -58.883 5.93099 -89.9289
rradius 101.787
rwrist -2.88703
rhand -22.5571 31.4712
rfingers 7.12502
rthumb 3.87077 1.52662
lclavicle 3.598e-014 3.18055e-015
lhumerus -36.5859 -17.024 100.577
lradius 136.596
lwrist 45.5681
lhand -9.0077 8.76985
lfingers 7.12502
lthumb 16.939 38.0512
rfemur -35.9953 3.50709 13.3666
rtibia 30.9628
rfoot 1.56861 -4.95831
rtoes -24.1094
lfemur 1.93006 -7.65494 -31.4736
ltibia 52.2984
lfoot 24.3288 -17.2308
ltoes 4.3758
122
root -13.3719 16.945 30.4001 -7.94379 -50.2992 11.3103
lowerback 10.9535 -1.17114 -3.8871
upperback 2.24359 -1.98143 1.33377
thorax -3.61351 -0.959429 3.85776
lowerneck -19.7196 -1.57603 -8.93309
upperneck 18.1644 -0.481519 4.23219
head 8.98495 -0.394999 2.85642
rclavicle 7.65321e-014 -1.59028e-014
rhumerus -59.1647 6.82508 -89.7525
rradius 102.215
rwrist -3.45465
rhand -22.7138 30.8303
rfingers 7.12502
rthumb 3.71948 0.883052
lclavicle 7.65321e-014 -1.59028e-014
lhumerus -37.7974 -16.8087 101.113
lradius 134.73
lwrist 43.3299
lhand -8.80326 9.77458
lfingers 7.12502
lthumb 17.1358 39.0389
rfemur -35.0287 3.71884 13.677
rtibia 30.0924
rfoot 2.83841 -2.7243
rtoes -27.6037
lfemur 1.00526 -7.90686 -31.5228
ltibia 55.7485
lfoot 21.8025 -16.8119
ltoes 2.73753
